# xmcd
#
# Track frame offsets: 
#        150
#        15069
#        31501
#        50412
#        64990
#        87570
#        105645
#        125482
#        145174
#        167631
#        183072
#        197693
#        211682
#        226202
#        241962
#        253107
#        272630
#        300498
#
# Disc length: 4238 seconds
#
# Revision: 0
# Processed by: cddbd v1.5.2PL0 Copyright (c) Steve Scherf et al.
# Submitted via: ExactAudioCopy v1.0b3
#
DISCID=e3108c12
DTITLE=Сурганова и Оркестр - Любовное настроение. Только лучшее
DYEAR=2007
DGENRE=Rock
TTITLE0=Не тобой болеет сердце
TTITLE1=Мой взгляд
TTITLE2=Мне нравится
TTITLE3=Апрельская посевная
TTITLE4=Путник милый
TTITLE5=Ты мое дыхание
TTITLE6=Я знаю женщину
TTITLE7=Ангел седой
TTITLE8=Молитва мольберту
TTITLE9=Горе по небу
TTITLE10=Милая девочка
TTITLE11=Абсолютный сталевар
TTITLE12=Мураками
TTITLE13=По дороге
TTITLE14=Дождь
TTITLE15=Ворон
TTITLE16=В небе полном звезд
TTITLE17=Белая
EXTD=
EXTT0=
EXTT1=
EXTT2=
EXTT3=
EXTT4=
EXTT5=
EXTT6=
EXTT7=
EXTT8=
EXTT9=
EXTT10=
EXTT11=
EXTT12=
EXTT13=
EXTT14=
EXTT15=
EXTT16=
EXTT17=
PLAYORDER=
